<svg width="36" height="36" viewBox="0 0 36 36" fill="none" xmlns="http://www.w3.org/2000/svg">
<path d="M31.283 17.688H26.8867C24.6885 17.688 22.7834 18.84 21.7576 20.568C21.318 21.432 21.0249 22.44 21.0249 23.448V30.504C21.0249 30.936 21.318 31.368 21.6111 31.656C21.7576 31.944 22.0507 31.944 22.3438 31.944H31.283C32.1623 31.944 32.7485 31.224 32.7485 30.504V19.128C32.7485 18.408 32.0157 17.688 31.283 17.688Z" fill="#A5A5A5"/>
<path d="M26.7403 14.808C29.9642 14.808 32.7486 12.216 32.7486 8.904C32.7486 5.736 30.1108 3 26.7403 3C23.5163 3 20.7319 5.592 20.7319 8.904C20.8785 12.216 23.5163 14.808 26.7403 14.808Z" fill="#A5A5A5"/>
<path d="M16.3356 3.14404H16.189C15.7494 3.14404 15.3097 3.28804 14.8701 3.28804C12.6719 3.86404 10.6203 4.72804 9.00833 6.02404C7.83597 6.88804 6.81016 7.89604 5.93089 9.04804C4.61199 10.632 3.73272 12.648 3.29309 14.808C3.14654 15.816 3 16.68 3 17.688C3 18.696 3.14654 19.704 3.29309 20.568C3.73272 22.872 4.61199 24.744 5.93089 26.472C6.81016 27.624 7.83597 28.632 9.00833 29.496C10.7669 30.792 12.8185 31.656 15.0167 32.088C15.4563 32.232 15.8959 32.232 16.3356 32.232H16.6286C17.5079 32.232 18.0941 31.512 18.0941 30.792V4.58404C17.801 3.86404 17.2148 3.14404 16.3356 3.14404Z" fill="#A5A5A5"/>
</svg>
