<svg width="520" height="107" viewBox="0 0 520 107" fill="none" xmlns="http://www.w3.org/2000/svg">
<path fill-rule="evenodd" clip-rule="evenodd" d="M139.415 20.8882C137.251 20.8882 135.086 20.0356 133.787 18.3304C132.055 16.6252 131.189 14.92 131.189 12.7886C131.189 10.6571 132.055 8.52562 133.787 7.24673C135.519 5.54155 137.251 4.68896 139.415 4.68896C141.58 4.68896 143.745 5.54155 145.044 7.24673C146.776 8.95191 147.642 10.6571 147.642 12.7886C147.642 14.92 146.776 17.0515 145.044 18.3304C143.312 20.0356 141.58 20.8882 139.415 20.8882ZM146.343 85.685H131.622V28.1352H146.343V85.685ZM190.939 27.7085C194.402 27.7085 197.433 28.1348 200.464 29.4137C203.495 30.2663 205.66 31.9715 207.825 34.103C209.989 36.2344 211.721 38.7922 212.587 41.7763C213.886 44.7603 214.319 48.1707 214.319 52.0073V85.6846H199.598V53.7125C199.598 49.8759 198.299 46.8918 196.134 44.7603C193.969 42.6288 190.939 41.35 187.475 41.35C184.011 41.35 180.98 42.6288 178.815 44.7603C176.651 46.8918 175.352 49.8759 175.352 53.7125V85.6846H160.631V28.1348H171.455L174.053 33.6767C175.352 32.3978 177.083 31.5452 178.815 30.6926C179.698 30.1133 180.78 29.7308 182.063 29.2777L182.063 29.2776C182.668 29.0639 183.317 28.8344 184.011 28.5611C186.176 28.1348 188.341 27.7085 190.939 27.7085ZM240.301 84.4057C243.764 85.6846 247.228 86.5372 250.692 86.5372C253.29 86.5372 255.455 86.1109 257.619 85.2583C259.784 84.832 261.516 83.9794 262.815 83.1269C263.172 82.8926 263.562 82.6583 263.966 82.4152L263.966 82.4151L263.966 82.4149L263.967 82.4148C265.034 81.7733 266.203 81.0701 267.145 80.1428L269.743 85.6846H280.567V28.1348H269.743L267.145 33.6767C266.679 33.3707 266.212 33.0098 265.726 32.6334C264.858 31.961 263.925 31.2392 262.815 30.6926C261.933 30.1133 260.85 29.7308 259.568 29.2777L259.568 29.2776L259.567 29.2775L259.566 29.2772L259.566 29.277C258.961 29.0634 258.313 28.8341 257.619 28.5611C255.455 28.1348 253.29 27.7085 250.692 27.7085C247.228 27.7085 243.764 28.5611 240.301 29.84C237.27 31.1189 234.239 33.2504 231.641 35.8081C229.043 38.3659 226.878 41.7763 225.579 45.1866C224.281 49.0233 223.415 52.8599 223.415 57.1229C223.415 61.3858 224.281 65.6488 225.579 69.0591C227.311 72.8958 229.043 75.8798 231.641 78.4376C234.239 80.9954 236.837 83.1269 240.301 84.4057ZM262.815 45.6129C265.846 48.597 267.145 52.4336 267.145 57.1229C267.145 61.8121 265.846 65.6488 262.815 68.6328C260.217 71.6169 256.321 72.8958 252.424 72.8958C248.527 72.8958 244.63 71.6169 242.032 68.6328C239.002 65.6488 237.703 61.8121 237.703 57.1229C237.703 52.4336 239.435 48.597 242.032 45.6129C244.63 42.6288 248.094 41.35 252.424 41.35C256.754 41.35 260.217 42.6288 262.815 45.6129ZM316.067 27.7085C318.665 27.7085 320.83 28.1348 322.995 28.5611C323.689 28.8344 324.338 29.0639 324.943 29.2777C326.226 29.7308 327.308 30.1133 328.191 30.6926C329.301 31.2392 330.233 31.961 331.102 32.6334C331.588 33.0098 332.054 33.3707 332.52 33.6767L335.118 28.1348H345.943V81.848C345.943 89.5213 343.345 95.4894 338.582 100.179C333.819 104.868 326.892 106.999 317.799 106.999C312.171 106.999 307.841 106.147 304.81 104.015C301.346 101.884 298.749 99.7523 297.017 97.6209C294.852 95.0631 293.12 91.6528 292.254 88.2424H306.975C307.408 89.5213 308.274 90.3739 309.573 91.2265C310.439 92.079 311.738 92.5053 313.037 92.9316C314.336 93.3579 316.5 93.7842 318.665 93.7842C322.995 93.7842 326.026 92.5053 328.624 90.3739C331.221 88.2424 332.087 85.2583 332.087 81.848V77.585C330.788 78.8639 329.49 79.7165 328.191 80.5691C326.892 81.4217 325.16 82.2743 323.428 82.7006C321.696 83.1269 319.531 83.5532 316.933 83.5532C313.47 83.5532 310.006 82.7006 306.542 81.4217C303.078 80.1428 300.48 78.0113 297.883 75.4536C295.285 72.8958 293.553 69.9117 292.254 66.5014C290.955 63.091 290.089 59.2543 290.089 55.4177C290.089 51.1547 290.955 47.7444 292.254 44.334C293.553 40.9237 295.718 37.9396 297.883 35.3818C300.48 32.8241 303.078 31.1189 306.542 29.4137C308.707 28.1348 312.171 27.7085 316.067 27.7085ZM303.944 55.844C303.944 57.9755 304.377 59.6806 304.81 61.3858C305.676 63.091 306.542 64.7962 307.841 66.0751C309.14 67.3539 310.439 68.2065 312.171 69.0591C313.903 69.9117 315.634 70.338 317.799 70.338C319.531 70.338 321.263 69.9117 322.995 69.0591C324.727 68.2065 326.026 67.3539 327.325 66.0751C328.624 64.7962 329.49 63.091 330.356 61.3858C331.221 59.6806 331.654 57.5492 331.654 55.844C331.654 53.7125 331.221 52.0073 330.356 50.3022C329.49 48.597 328.624 46.8918 327.325 45.6129C326.026 44.334 324.727 43.4814 322.995 42.6288C321.263 41.7763 319.531 41.35 317.799 41.35C315.634 41.35 313.903 41.7763 312.171 42.6288C310.439 43.4814 309.14 44.334 307.841 45.6129C306.542 46.8918 305.676 48.597 304.81 50.3022C304.377 52.0073 303.944 53.7125 303.944 55.844ZM371.489 84.4057C374.953 85.6846 378.417 86.5372 381.881 86.5372C384.478 86.5372 386.643 86.1109 388.808 85.2583C390.973 84.832 392.705 83.9794 394.004 83.1269C394.361 82.8925 394.751 82.6581 395.155 82.4148L395.156 82.4146L395.156 82.4144C396.223 81.773 397.392 81.0699 398.334 80.1428L400.931 85.6846H411.756V28.1348H400.931L398.334 33.6767C397.867 33.3707 397.401 33.0098 396.915 32.6334C396.047 31.961 395.114 31.2392 394.004 30.6926C393.121 30.1133 392.039 29.7308 390.757 29.2777C390.152 29.0639 389.502 28.8344 388.808 28.5611C386.643 28.1348 384.478 27.7085 381.881 27.7085C378.417 27.7085 374.953 28.5611 371.489 29.84C368.026 31.1189 365.428 33.2504 362.83 35.8081C360.232 38.3659 358.067 41.7763 356.768 45.1866C355.469 49.0233 354.603 52.8599 354.603 57.1229C354.603 61.3858 355.469 65.6488 356.768 69.0591C358.5 72.8958 360.232 75.8798 362.83 78.4376C365.428 80.9954 368.026 83.1269 371.489 84.4057ZM394.004 45.6129C397.035 48.597 398.334 52.4336 398.334 57.1229C398.334 61.8121 397.035 65.6488 394.004 68.6328C391.406 71.6169 387.942 72.8958 383.613 72.8958C379.283 72.8958 375.819 71.6169 373.221 68.6328C370.19 65.6488 368.891 61.8121 368.891 57.1229C368.891 52.4336 370.623 48.597 373.221 45.6129C375.819 42.6288 379.283 41.35 383.613 41.35C387.942 41.35 391.406 42.6288 394.004 45.6129ZM431.241 14.4938H443.797V28.1352H456.354V41.3504H443.797V65.2229C443.797 67.7806 444.663 69.9121 445.962 71.191C447.261 72.4699 449.426 73.3225 452.024 73.3225H453.756H455.055C455.488 73.3225 455.921 73.3225 455.921 72.8962V85.2587C455.488 85.685 454.622 85.685 453.756 85.685C452.457 86.1113 450.725 86.1113 448.993 86.1113C445.962 86.1113 443.364 85.685 441.2 84.8324C438.602 83.9798 436.87 82.2747 435.138 80.5695C433.406 78.8643 432.107 76.7328 431.241 74.175C430.375 71.6173 429.942 68.6332 429.942 65.6492V41.3504H420.85V29.4141H424.314C429.076 29.4141 431.241 27.2826 431.241 22.5934V14.4938ZM479.734 84.4057C483.198 85.6846 486.662 86.5372 490.125 86.5372C492.723 86.5372 494.888 86.1109 497.053 85.2583C499.218 84.832 500.95 83.9794 502.249 83.1269C502.606 82.8925 502.996 82.6581 503.4 82.4148C504.467 81.7733 505.637 81.0701 506.578 80.1428L509.176 85.6846H520.001V28.1348H509.176L506.578 33.6767C506.112 33.3707 505.646 33.0098 505.16 32.6333C504.291 31.961 503.359 31.2392 502.249 30.6926C501.366 30.1133 500.284 29.7308 499.001 29.2777C498.396 29.0639 497.747 28.8344 497.053 28.5611C494.888 28.1348 492.723 27.7085 490.125 27.7085C486.662 27.7085 483.198 28.5611 479.734 29.84C476.27 31.1189 473.673 33.2504 471.075 35.8081C468.477 38.3659 466.312 41.7763 465.013 45.1866C463.714 49.0233 462.848 52.8599 462.848 57.1229C462.848 61.3858 463.714 65.6488 465.013 69.0591C466.745 72.8958 468.477 75.8798 471.075 78.4376C473.673 80.9954 476.27 83.1269 479.734 84.4057ZM502.249 45.6129C505.28 48.597 506.578 52.4336 506.578 57.1229C506.578 61.8121 505.28 65.6488 502.249 68.6328C499.651 71.6169 496.187 72.8958 491.857 72.8958C487.528 72.8958 484.064 71.6169 481.466 68.6328C478.435 65.6488 477.136 61.8121 477.136 57.1229C477.136 52.4336 478.435 48.597 481.466 45.6129C484.064 42.6288 487.528 41.35 491.857 41.35C495.754 41.35 499.651 42.6288 502.249 45.6129Z" fill="#77787C"/>
<path fill-rule="evenodd" clip-rule="evenodd" d="M70.1431 34.9562C79.6685 34.9562 87.895 27.2829 87.895 17.4781C87.895 8.0996 80.1015 0 70.1431 0C60.6177 0 52.3912 7.67331 52.3912 17.4781C52.8242 27.2829 60.6177 34.9562 70.1431 34.9562ZM83.5649 43.482H70.5757C64.0811 43.482 58.4525 46.8924 55.4217 52.0079C54.1228 54.5657 53.2568 57.5498 53.2568 60.5338V81.4223C53.2568 82.7012 54.1228 83.98 54.9887 84.8326C55.4217 85.6852 56.2876 85.6852 57.1536 85.6852H83.5649C86.1628 85.6852 87.8946 83.5537 87.8946 81.4223V47.745C87.8946 45.6135 85.7298 43.482 83.5649 43.482ZM38.9675 0.426422H39.4005C41.9983 0.426422 43.7302 2.5579 44.5962 4.68937V82.275C44.5962 84.4065 42.8643 86.538 40.2664 86.538H39.4005C38.1016 86.538 36.8027 86.538 35.5037 86.1117C29.0092 84.8328 22.9475 82.275 17.7519 78.4384C14.2881 75.8806 11.2573 72.8965 8.65945 69.4862C4.7627 64.3706 2.16486 58.8288 0.865945 52.0081C0.432973 49.4503 0 46.4663 0 43.4822C0 40.8339 0.34102 38.5213 0.720411 35.9486C0.768511 35.6224 0.817228 35.2921 0.865945 34.9563C2.16486 28.5619 4.7627 22.5938 8.65945 17.9045C11.2573 14.4942 14.2881 11.5101 17.7519 8.95232C22.5146 5.11566 28.5762 2.5579 35.0708 0.852717C35.7202 0.852717 36.3697 0.746143 37.0191 0.63957C37.6686 0.532996 38.3181 0.426422 38.9675 0.426422Z" fill="#EB2227"/>
</svg>
