<svg width="1020" height="900" viewBox="0 0 1020 900" fill="none" xmlns="http://www.w3.org/2000/svg">
<path opacity="0.0208333" d="M999.884 450.455C999.884 720.709 780.556 939.795 510 939.795C239.444 939.795 20.1152 720.709 20.1152 450.455C20.1152 180.201 239.444 -38.8848 510 -38.8848C780.556 -38.8848 999.884 180.201 999.884 450.455Z" stroke="white" stroke-opacity="0.5"/>
<path opacity="0.0416667" d="M980.269 450.455C980.269 709.876 769.723 920.179 510 920.179C250.277 920.179 39.7305 709.876 39.7305 450.455C39.7305 191.034 250.277 -19.2695 510 -19.2695C769.723 -19.2695 980.269 191.034 980.269 450.455Z" stroke="white" stroke-opacity="0.5"/>
<path opacity="0.0625" d="M960.653 450.455C960.653 699.042 758.889 900.564 510 900.564C261.11 900.564 59.3457 699.042 59.3457 450.455C59.3457 201.867 261.11 0.345703 510 0.345703C758.889 0.345703 960.653 201.867 960.653 450.455Z" stroke="white" stroke-opacity="0.5"/>
<path opacity="0.0833333" d="M941.039 450.456C941.039 688.21 748.057 880.949 510 880.949C271.944 880.949 78.9619 688.21 78.9619 450.456C78.9619 212.701 271.944 19.9619 510 19.9619C748.057 19.9619 941.039 212.701 941.039 450.456Z" stroke="white" stroke-opacity="0.5"/>
<path opacity="0.104167" d="M921.423 450.455C921.423 677.376 737.224 861.334 510 861.334C282.777 861.334 98.5771 677.376 98.5771 450.455C98.5771 223.534 282.777 39.5771 510 39.5771C737.224 39.5771 921.423 223.534 921.423 450.455Z" stroke="white" stroke-opacity="0.5"/>
<path opacity="0.125" d="M901.808 450.455C901.808 666.543 726.39 841.718 510 841.718C293.61 841.718 118.192 666.543 118.192 450.455C118.192 234.367 293.61 59.1924 510 59.1924C726.39 59.1924 901.808 234.367 901.808 450.455Z" stroke="white" stroke-opacity="0.5"/>
<path opacity="0.145833" d="M882.192 450.455C882.192 655.71 715.557 822.102 510 822.102C304.443 822.102 137.808 655.71 137.808 450.455C137.808 245.201 304.443 78.8076 510 78.8076C715.557 78.8076 882.192 245.201 882.192 450.455Z" stroke="white" stroke-opacity="0.5"/>
<path opacity="0.166667" d="M862.577 450.455C862.577 644.876 704.723 802.487 510 802.487C315.276 802.487 157.423 644.876 157.423 450.455C157.423 256.034 315.276 98.4229 510 98.4229C704.723 98.4229 862.577 256.034 862.577 450.455Z" stroke="white" stroke-opacity="0.5"/>
<path opacity="0.1875" d="M842.961 450.455C842.961 634.043 693.89 782.871 510 782.871C326.109 782.871 177.038 634.043 177.038 450.455C177.038 266.867 326.109 118.038 510 118.038C693.89 118.038 842.961 266.867 842.961 450.455Z" stroke="white" stroke-opacity="0.5"/>
<path opacity="0.208333" d="M823.347 450.456C823.347 623.21 683.058 763.257 510 763.257C336.943 763.257 196.654 623.21 196.654 450.456C196.654 277.701 336.943 137.654 510 137.654C683.058 137.654 823.347 277.701 823.347 450.456Z" stroke="white" stroke-opacity="0.5"/>
<path opacity="0.229167" d="M803.731 450.455C803.731 612.377 672.224 743.641 510 743.641C347.776 743.641 216.27 612.377 216.27 450.455C216.27 288.534 347.776 157.27 510 157.27C672.224 157.27 803.731 288.534 803.731 450.455Z" stroke="white" stroke-opacity="0.5"/>
<path opacity="0.25" d="M784.116 450.455C784.116 601.543 661.391 724.026 510 724.026C358.609 724.026 235.885 601.543 235.885 450.455C235.885 299.367 358.609 176.885 510 176.885C661.391 176.885 784.116 299.367 784.116 450.455Z" stroke="white" stroke-opacity="0.5"/>
<path opacity="0.270833" d="M764.5 450.455C764.5 590.71 650.557 704.41 510 704.41C369.443 704.41 255.5 590.71 255.5 450.455C255.5 310.201 369.443 196.5 510 196.5C650.557 196.5 764.5 310.201 764.5 450.455Z" stroke="white" stroke-opacity="0.5"/>
<path opacity="0.291667" d="M744.884 450.455C744.884 579.876 639.724 684.795 510 684.795C380.276 684.795 275.115 579.876 275.115 450.455C275.115 321.034 380.276 216.115 510 216.115C639.724 216.115 744.884 321.034 744.884 450.455Z" stroke="white" stroke-opacity="0.5"/>
<path opacity="0.3125" d="M725.269 450.455C725.269 569.043 628.891 665.179 510 665.179C391.109 665.179 294.73 569.043 294.73 450.455C294.73 331.867 391.109 235.73 510 235.73C628.891 235.73 725.269 331.867 725.269 450.455Z" stroke="white" stroke-opacity="0.5"/>
<path opacity="0.333333" d="M705.653 450.455C705.653 558.209 618.057 645.564 510 645.564C401.942 645.564 314.346 558.209 314.346 450.455C314.346 342.7 401.942 255.346 510 255.346C618.057 255.346 705.653 342.7 705.653 450.455Z" stroke="white" stroke-opacity="0.5"/>
<path opacity="0.354167" d="M686.039 450.456C686.039 547.376 607.225 625.949 510 625.949C412.776 625.949 333.962 547.376 333.962 450.456C333.962 353.535 412.776 274.962 510 274.962C607.225 274.962 686.039 353.535 686.039 450.456Z" stroke="white" stroke-opacity="0.5"/>
<path opacity="0.375" d="M666.423 450.455C666.423 536.543 596.392 606.334 510 606.334C423.609 606.334 353.577 536.543 353.577 450.455C353.577 364.368 423.609 294.577 510 294.577C596.392 294.577 666.423 364.368 666.423 450.455Z" stroke="white" stroke-opacity="0.5"/>
<path opacity="0.395833" d="M646.808 450.455C646.808 525.709 585.559 586.718 510 586.718C434.441 586.718 373.192 525.709 373.192 450.455C373.192 375.201 434.441 314.192 510 314.192C585.559 314.192 646.808 375.201 646.808 450.455Z" stroke="white" stroke-opacity="0.5"/>
<path opacity="0.416667" d="M627.192 450.455C627.192 514.875 574.726 567.102 510 567.102C445.274 567.102 392.808 514.875 392.808 450.455C392.808 386.035 445.274 333.808 510 333.808C574.726 333.808 627.192 386.035 627.192 450.455Z" stroke="white" stroke-opacity="0.5"/>
<path opacity="0.4375" d="M607.577 450.455C607.577 504.042 563.893 547.487 510 547.487C456.107 547.487 412.423 504.042 412.423 450.455C412.423 396.868 456.107 353.423 510 353.423C563.893 353.423 607.577 396.868 607.577 450.455Z" stroke="white" stroke-opacity="0.5"/>
<path opacity="0.458333" d="M587.961 450.455C587.961 493.208 553.06 527.871 510 527.871C466.939 527.871 432.038 493.208 432.038 450.455C432.038 407.702 466.939 373.038 510 373.038C553.06 373.038 587.961 407.702 587.961 450.455Z" stroke="white" stroke-opacity="0.5"/>
<path opacity="0.479167" d="M568.347 450.456C568.347 482.374 542.229 508.257 510 508.257C477.772 508.257 451.654 482.374 451.654 450.456C451.654 418.537 477.772 392.654 510 392.654C542.229 392.654 568.347 418.537 568.347 450.456Z" stroke="white" stroke-opacity="0.5"/>
<path opacity="0.5" d="M548.731 450.455C548.731 471.538 531.397 488.641 510 488.641C488.603 488.641 471.27 471.538 471.27 450.455C471.27 429.373 488.603 412.27 510 412.27C531.397 412.27 548.731 429.373 548.731 450.455Z" stroke="white" stroke-opacity="0.5"/>
</svg>
