<svg width="768" height="156" viewBox="0 0 768 156" fill="none" xmlns="http://www.w3.org/2000/svg">
<mask id="mask0" mask-type="alpha" maskUnits="userSpaceOnUse" x="0" y="0" width="768" height="156">
<rect width="768" height="156" fill="#121212"/>
</mask>
<g mask="url(#mask0)">
<path opacity="0.111111" d="M643.375 -72.6005C637.884 0.607976 562.326 180.913 304.026 316.467C-18.8479 485.91 366.836 528.935 752.182 213.058C1060.46 -39.644 1387.18 2.98247 1512 55.8835" stroke="#FF0202" stroke-opacity="0.5"/>
<path opacity="0.222222" d="M652.017 -80.1901C642.461 -7.38426 557.146 168.897 292.333 291.574C-38.6846 444.92 343.026 506.723 744.434 210.264C1065.56 -26.9026 1388.57 31.6192 1509.93 90.5259" stroke="#FF0202" stroke-opacity="0.5"/>
<path opacity="0.333333" d="M661.024 -87.2423C647.435 -15.028 552.614 156.788 282.048 266.336C-56.161 403.271 320.49 483.587 736.802 207.22C1069.85 -13.8738 1388.23 60.3035 1505.79 125.029" stroke="#FF0202" stroke-opacity="0.5"/>
<path opacity="0.444444" d="M670.363 -93.7437C652.782 -22.308 548.731 144.614 273.183 240.819C-71.252 361.074 299.274 459.588 729.298 203.927C1073.32 -0.601248 1386.16 88.9475 1499.59 159.288" stroke="#FF0202" stroke-opacity="0.5"/>
<path opacity="0.555556" d="M680.003 -99.6809C658.481 -29.2086 545.498 132.407 265.75 215.091C-83.9361 318.446 279.42 434.788 721.935 200.391C1075.95 12.8726 1382.38 117.465 1491.35 193.201" stroke="#FF0202" stroke-opacity="0.5"/>
<path opacity="0.666667" d="M689.91 -105.033C664.508 -35.7063 542.913 120.204 259.751 189.229C-94.2009 275.51 260.966 409.264 714.725 196.625C1077.73 26.514 1376.9 145.781 1481.1 226.678" stroke="#FF0202" stroke-opacity="0.5"/>
<path opacity="0.777778" d="M700.051 -109.795C670.841 -41.7923 540.975 108.03 255.192 163.295C-102.038 232.378 243.95 383.076 707.683 192.631C1078.67 40.2752 1369.73 173.805 1468.88 259.615" stroke="#FF0202" stroke-opacity="0.5"/>
<path opacity="0.888889" d="M710.39 -113.953C677.454 -47.4492 539.678 95.9188 252.066 137.364C-107.449 189.17 228.399 356.298 700.82 188.421C1078.76 54.1183 1360.9 201.461 1454.73 291.92" stroke="#FF0202" stroke-opacity="0.5"/>
<path d="M720.893 -117.5C684.321 -52.6667 539.015 83.9 250.369 111.5C-110.44 146 214.342 329 694.147 184C1077.99 68 1350.44 228.667 1438.69 323.5" stroke="#FF0202" stroke-opacity="0.5"/>
</g>
</svg>
