<svg width="1385" height="240" viewBox="0 0 1385 240" fill="none" xmlns="http://www.w3.org/2000/svg">
<path opacity="0.111111" d="M588.375 -72.6015C582.884 0.606999 507.326 180.912 249.026 316.466C-73.8479 485.909 311.836 528.934 697.182 213.057C1005.46 -39.645 1332.18 2.98149 1457 55.8825" stroke="#FF0202" stroke-opacity="0.5"/>
<path opacity="0.222222" d="M597.017 -80.1891C587.461 -7.38329 502.146 168.898 237.333 291.575C-93.6846 444.921 288.026 506.724 689.434 210.265C1010.56 -26.9017 1333.57 31.6201 1454.93 90.5269" stroke="#FF0202" stroke-opacity="0.5"/>
<path opacity="0.333333" d="M606.024 -87.2433C592.435 -15.029 497.614 156.787 227.048 266.335C-111.161 403.27 265.49 483.586 681.802 207.219C1014.85 -13.8748 1333.23 60.3025 1450.79 125.028" stroke="#FF0202" stroke-opacity="0.5"/>
<path opacity="0.444444" d="M615.363 -93.7446C597.782 -22.309 493.731 144.613 218.183 240.818C-126.252 361.074 244.274 459.587 674.298 203.926C1018.32 -0.602225 1331.16 88.9465 1444.59 159.287" stroke="#FF0202" stroke-opacity="0.5"/>
<path opacity="0.555556" d="M625.003 -99.6799C603.481 -29.2077 490.498 132.408 210.75 215.092C-138.936 318.447 224.42 434.789 666.935 200.392C1020.95 12.8736 1327.38 117.466 1436.35 193.202" stroke="#FF0202" stroke-opacity="0.5"/>
<path opacity="0.666667" d="M634.91 -105.034C609.508 -35.7073 487.913 120.203 204.751 189.228C-149.201 275.509 205.966 409.263 659.725 196.624C1022.73 26.513 1321.9 145.78 1426.1 226.677" stroke="#FF0202" stroke-opacity="0.5"/>
<path opacity="0.777778" d="M645.051 -109.796C615.841 -41.7932 485.975 108.029 200.192 163.295C-157.038 232.377 188.95 383.075 652.683 192.63C1023.67 40.2742 1314.73 173.804 1413.88 259.614" stroke="#FF0202" stroke-opacity="0.5"/>
<path opacity="0.888889" d="M655.39 -113.954C622.454 -47.4502 484.678 95.9179 197.066 137.363C-162.449 189.169 173.399 356.297 645.82 188.42C1023.76 54.1173 1305.9 201.46 1399.73 291.919" stroke="#FF0202" stroke-opacity="0.5"/>
<path d="M665.893 -117.5C629.321 -52.6667 484.015 83.9 195.369 111.5C-165.44 146 159.342 329 639.147 184C1022.99 68 1295.44 228.667 1383.69 323.5" stroke="#FF0202" stroke-opacity="0.5"/>
</svg>
