<svg width="16" height="26" viewBox="0 0 16 26" fill="none" xmlns="http://www.w3.org/2000/svg">
<path fill-rule="evenodd" clip-rule="evenodd" d="M7.6682 0.579102C8.22021 0.579102 8.66821 1.0271 8.66821 1.5791L8.668 12.5124H14.3367C14.7007 12.5124 15.0354 12.7098 15.2114 13.0298C15.3887 13.3484 15.3767 13.7378 15.1821 14.0444L8.51407 24.6271C8.3314 24.9191 8.0114 25.0951 7.66874 25.0951C7.32474 25.0951 7.00607 24.9191 6.82207 24.6271L0.154071 14.0444C-0.0405954 13.7378 -0.051262 13.3484 0.124738 13.0298C0.300738 12.7098 0.635405 12.5124 1.00074 12.5124H6.668L6.6682 1.5791C6.6682 1.0271 7.1162 0.579102 7.6682 0.579102ZM12.5234 14.5124H2.81274L7.66874 22.2178L12.5234 14.5124Z" fill="currentColor"/>
</svg>
