<svg width="14" height="13" viewBox="0 0 14 13" fill="none" xmlns="http://www.w3.org/2000/svg">
<path d="M1.66634 13.0002H2.33301V4.3335H1.66634C1.31272 4.3335 0.97358 4.47397 0.723532 4.72402C0.473484 4.97407 0.333008 5.31321 0.333008 5.66683V11.6668C0.333008 12.0205 0.473484 12.3596 0.723532 12.6096C0.97358 12.8597 1.31272 13.0002 1.66634 13.0002ZM12.333 4.3335H7.66634L8.41434 2.08816C8.48108 1.88777 8.49927 1.67439 8.46739 1.4656C8.43551 1.25681 8.35449 1.05857 8.23099 0.887226C8.1075 0.71588 7.94506 0.576324 7.75706 0.480053C7.56907 0.383782 7.36089 0.333551 7.14967 0.333496H6.99967L3.66634 3.95883V13.0002H10.9997L13.6077 7.2695L13.6663 7.00016V5.66683C13.6663 5.31321 13.5259 4.97407 13.2758 4.72402C13.0258 4.47397 12.6866 4.3335 12.333 4.3335Z" fill="white"/>
</svg>
