<svg width="454" height="465" viewBox="0 0 454 465" fill="none" xmlns="http://www.w3.org/2000/svg">
<g style="mix-blend-mode:multiply" filter="url(#filter0_bd)">
<mask id="path-1-inside-1" fill="white">
<path fill-rule="evenodd" clip-rule="evenodd" d="M27.3431 26.3431C25 28.6863 25 32.4575 25 40V430.715C25 430.98 25 431.112 25.0031 431.224C25.1218 435.467 28.5334 438.878 32.7763 438.997C32.8882 439 33.0204 439 33.2848 439C36.458 439 38.0445 439 39.3862 438.962C90.3011 437.539 131.241 396.599 132.665 345.684C132.702 344.342 132.702 342.756 132.702 339.582V40C132.702 32.4575 132.702 28.6863 130.359 26.3431C128.016 24 124.245 24 116.702 24H41C33.4575 24 29.6863 24 27.3431 26.3431ZM159.051 132.69C155.413 132.69 152.464 135.64 152.464 139.278V423C152.464 430.542 152.464 434.314 154.807 436.657C157.15 439 160.922 439 168.464 439H255.036C262.578 439 266.349 439 268.692 436.657C271.036 434.314 271.036 430.542 271.036 423V244.675C271.036 182.827 220.899 132.69 159.051 132.69Z"/>
</mask>
<path fill-rule="evenodd" clip-rule="evenodd" d="M27.3431 26.3431C25 28.6863 25 32.4575 25 40V430.715C25 430.98 25 431.112 25.0031 431.224C25.1218 435.467 28.5334 438.878 32.7763 438.997C32.8882 439 33.0204 439 33.2848 439C36.458 439 38.0445 439 39.3862 438.962C90.3011 437.539 131.241 396.599 132.665 345.684C132.702 344.342 132.702 342.756 132.702 339.582V40C132.702 32.4575 132.702 28.6863 130.359 26.3431C128.016 24 124.245 24 116.702 24H41C33.4575 24 29.6863 24 27.3431 26.3431ZM159.051 132.69C155.413 132.69 152.464 135.64 152.464 139.278V423C152.464 430.542 152.464 434.314 154.807 436.657C157.15 439 160.922 439 168.464 439H255.036C262.578 439 266.349 439 268.692 436.657C271.036 434.314 271.036 430.542 271.036 423V244.675C271.036 182.827 220.899 132.69 159.051 132.69Z" fill="url(#paint0_linear)"/>
<path d="M25.0031 431.224L24.0035 431.252H24.0035L25.0031 431.224ZM32.7763 438.997L32.7484 439.996H32.7485L32.7763 438.997ZM39.3862 438.962L39.3582 437.963H39.3582L39.3862 438.962ZM132.665 345.684L133.664 345.712L132.665 345.684ZM154.807 436.657L155.514 435.95V435.95L154.807 436.657ZM268.692 436.657L267.985 435.95L268.692 436.657ZM26 40C26 36.2005 26.0021 33.4515 26.284 31.3551C26.562 29.2874 27.0954 28.0051 28.0503 27.0503L26.636 25.636C25.2477 27.0244 24.6096 28.7992 24.3018 31.0886C23.9979 33.3492 24 36.257 24 40H26ZM26 430.715V40H24V430.715H26ZM26.0027 431.196C26.0001 431.101 26 430.986 26 430.715H24C24 430.973 23.9999 431.122 24.0035 431.252L26.0027 431.196ZM32.8043 437.997C29.0918 437.893 26.1066 434.908 26.0027 431.196L24.0035 431.252C24.137 436.025 27.9751 439.863 32.7484 439.996L32.8043 437.997ZM33.2848 438C33.0136 438 32.8986 438 32.8042 437.997L32.7485 439.996C32.8777 440 33.0271 440 33.2848 440V438ZM39.3582 437.963C38.0341 438 36.4647 438 33.2848 438V440C36.4512 440 38.055 440 39.4142 439.962L39.3582 437.963ZM131.665 345.656C130.256 396.04 89.7428 436.554 39.3582 437.963L39.4141 439.962C90.8594 438.523 132.226 397.157 133.664 345.712L131.665 345.656ZM131.702 339.582C131.702 342.762 131.702 344.332 131.665 345.656L133.664 345.712C133.702 344.353 133.702 342.749 133.702 339.582H131.702ZM131.702 40V339.582H133.702V40H131.702ZM129.652 27.0503C130.607 28.0051 131.14 29.2875 131.418 31.3551C131.7 33.4515 131.702 36.2005 131.702 40H133.702C133.702 36.257 133.704 33.3492 133.401 31.0886C133.093 28.7992 132.455 27.0244 131.066 25.636L129.652 27.0503ZM116.702 25C120.502 25 123.251 25.0021 125.347 25.284C127.415 25.562 128.697 26.0954 129.652 27.0503L131.066 25.636C129.678 24.2477 127.903 23.6096 125.614 23.3018C123.353 22.9979 120.445 23 116.702 23V25ZM41 25H116.702V23H41V25ZM28.0503 27.0503C29.0051 26.0954 30.2875 25.562 32.3551 25.284C34.4515 25.0021 37.2005 25 41 25V23C37.257 23 34.3492 22.9979 32.0886 23.3018C29.7992 23.6096 28.0244 24.2477 26.636 25.636L28.0503 27.0503ZM153.464 139.278C153.464 136.192 155.966 133.69 159.051 133.69V131.69C154.861 131.69 151.464 135.087 151.464 139.278H153.464ZM153.464 423V139.278H151.464V423H153.464ZM155.514 435.95C154.56 434.995 154.026 433.713 153.748 431.645C153.466 429.549 153.464 426.799 153.464 423H151.464C151.464 426.743 151.462 429.651 151.766 431.911C152.074 434.201 152.712 435.976 154.1 437.364L155.514 435.95ZM168.464 438C164.665 438 161.916 437.998 159.819 437.716C157.752 437.438 156.469 436.905 155.514 435.95L154.1 437.364C155.489 438.752 157.263 439.39 159.553 439.698C161.813 440.002 164.721 440 168.464 440V438ZM255.036 438H168.464V440H255.036V438ZM267.985 435.95C267.031 436.905 265.748 437.438 263.681 437.716C261.584 437.998 258.835 438 255.036 438V440C258.779 440 261.686 440.002 263.947 439.698C266.236 439.39 268.011 438.752 269.4 437.364L267.985 435.95ZM270.036 423C270.036 426.799 270.033 429.549 269.752 431.645C269.474 433.713 268.94 434.995 267.985 435.95L269.4 437.364C270.788 435.976 271.426 434.201 271.734 431.911C272.038 429.651 272.036 426.743 272.036 423H270.036ZM270.036 244.675V423H272.036V244.675H270.036ZM159.051 133.69C220.346 133.69 270.036 183.38 270.036 244.675H272.036C272.036 182.275 221.451 131.69 159.051 131.69V133.69Z" fill="url(#paint1_linear)" mask="url(#path-1-inside-1)"/>
</g>
<g style="mix-blend-mode:multiply" filter="url(#filter1_bd)">
<mask id="path-3-inside-2" fill="white">
<path fill-rule="evenodd" clip-rule="evenodd" d="M365.777 73.4043C362.567 73.4043 359.964 76.0066 359.964 79.2166C359.964 103.292 379.481 122.809 403.557 122.809H418.378C422.68 122.809 426.167 119.322 426.167 115.021V89.4043C426.167 81.8618 426.167 78.0906 423.824 75.7474C421.48 73.4043 417.709 73.4043 410.167 73.4043H365.777ZM312.903 135.033C310.56 137.376 310.56 141.148 310.56 148.69V423C310.56 430.542 310.56 434.313 312.903 436.656C315.246 439 319.017 439 326.56 439H413.131C420.673 439 424.445 439 426.788 436.656C429.131 434.313 429.131 430.542 429.131 423V148.69C429.131 141.148 429.131 137.376 426.788 135.033C424.445 132.69 420.673 132.69 413.131 132.69H326.56C319.017 132.69 315.246 132.69 312.903 135.033Z"/>
</mask>
<path fill-rule="evenodd" clip-rule="evenodd" d="M365.777 73.4043C362.567 73.4043 359.964 76.0066 359.964 79.2166C359.964 103.292 379.481 122.809 403.557 122.809H418.378C422.68 122.809 426.167 119.322 426.167 115.021V89.4043C426.167 81.8618 426.167 78.0906 423.824 75.7474C421.48 73.4043 417.709 73.4043 410.167 73.4043H365.777ZM312.903 135.033C310.56 137.376 310.56 141.148 310.56 148.69V423C310.56 430.542 310.56 434.313 312.903 436.656C315.246 439 319.017 439 326.56 439H413.131C420.673 439 424.445 439 426.788 436.656C429.131 434.313 429.131 430.542 429.131 423V148.69C429.131 141.148 429.131 137.376 426.788 135.033C424.445 132.69 420.673 132.69 413.131 132.69H326.56C319.017 132.69 315.246 132.69 312.903 135.033Z" fill="url(#paint2_linear)"/>
<path d="M423.824 75.7474L424.531 75.0403V75.0403L423.824 75.7474ZM312.903 135.033L313.61 135.74H313.61L312.903 135.033ZM312.903 436.656L313.61 435.949H313.61L312.903 436.656ZM426.788 436.656L426.081 435.949H426.081L426.788 436.656ZM426.788 135.033L426.081 135.74L426.788 135.033ZM360.964 79.2166C360.964 76.5588 363.119 74.4043 365.777 74.4043V72.4043C362.014 72.4043 358.964 75.4543 358.964 79.2166H360.964ZM403.557 121.809C380.034 121.809 360.964 102.74 360.964 79.2166H358.964C358.964 103.844 378.929 123.809 403.557 123.809V121.809ZM418.378 121.809H403.557V123.809H418.378V121.809ZM425.167 115.021C425.167 118.77 422.127 121.809 418.378 121.809V123.809C423.232 123.809 427.167 119.874 427.167 115.021H425.167ZM425.167 89.4043V115.021H427.167V89.4043H425.167ZM423.116 76.4545C424.071 77.4094 424.605 78.6917 424.883 80.7594C425.165 82.8558 425.167 85.6048 425.167 89.4043H427.167C427.167 85.6613 427.169 82.7535 426.865 80.4929C426.557 78.2035 425.919 76.4287 424.531 75.0403L423.116 76.4545ZM410.167 74.4043C413.966 74.4043 416.715 74.4064 418.812 74.6883C420.879 74.9663 422.162 75.4997 423.116 76.4545L424.531 75.0403C423.142 73.652 421.368 73.0139 419.078 72.7061C416.817 72.4022 413.91 72.4043 410.167 72.4043V74.4043ZM365.777 74.4043H410.167V72.4043H365.777V74.4043ZM311.56 148.69C311.56 144.89 311.562 142.141 311.844 140.045C312.122 137.977 312.655 136.695 313.61 135.74L312.196 134.326C310.807 135.714 310.169 137.489 309.861 139.779C309.557 142.039 309.56 144.947 309.56 148.69H311.56ZM311.56 423V148.69H309.56V423H311.56ZM313.61 435.949C312.655 434.994 312.122 433.712 311.844 431.644C311.562 429.548 311.56 426.799 311.56 423H309.56C309.56 426.742 309.557 429.65 309.861 431.911C310.169 434.2 310.807 435.975 312.196 437.363L313.61 435.949ZM326.56 438C322.76 438 320.011 437.997 317.915 437.716C315.847 437.438 314.565 436.904 313.61 435.949L312.196 437.363C313.584 438.752 315.359 439.39 317.648 439.698C319.909 440.002 322.817 440 326.56 440V438ZM413.131 438H326.56V440H413.131V438ZM426.081 435.949C425.126 436.904 423.844 437.438 421.776 437.716C419.68 437.997 416.931 438 413.131 438V440C416.874 440 419.782 440.002 422.042 439.698C424.332 439.39 426.107 438.752 427.495 437.363L426.081 435.949ZM428.131 423C428.131 426.799 428.129 429.548 427.847 431.644C427.569 433.712 427.036 434.994 426.081 435.949L427.495 437.363C428.883 435.975 429.521 434.2 429.829 431.911C430.133 429.65 430.131 426.742 430.131 423H428.131ZM428.131 148.69V423H430.131V148.69H428.131ZM426.081 135.74C427.036 136.695 427.569 137.977 427.847 140.045C428.129 142.141 428.131 144.891 428.131 148.69H430.131C430.131 144.947 430.133 142.039 429.829 139.779C429.521 137.489 428.883 135.714 427.495 134.326L426.081 135.74ZM413.131 133.69C416.931 133.69 419.68 133.692 421.776 133.974C423.844 134.252 425.126 134.785 426.081 135.74L427.495 134.326C426.107 132.938 424.332 132.3 422.042 131.992C419.782 131.688 416.874 131.69 413.131 131.69V133.69ZM326.56 133.69H413.131V131.69H326.56V133.69ZM313.61 135.74C314.565 134.785 315.847 134.252 317.915 133.974C320.011 133.692 322.76 133.69 326.56 133.69V131.69C322.817 131.69 319.909 131.688 317.648 131.992C315.359 132.3 313.584 132.938 312.196 134.326L313.61 135.74Z" fill="url(#paint3_linear)" mask="url(#path-3-inside-2)"/>
</g>
<defs>
<filter id="filter0_bd" x="0.440001" y="0" width="295.156" height="464.58" filterUnits="userSpaceOnUse" color-interpolation-filters="sRGB">
<feFlood flood-opacity="0" result="BackgroundImageFix"/>
<feGaussianBlur in="BackgroundImage" stdDeviation="12"/>
<feComposite in2="SourceAlpha" operator="in" result="effect1_backgroundBlur"/>
<feColorMatrix in="SourceAlpha" type="matrix" values="0 0 0 0 0 0 0 0 0 0 0 0 0 0 0 0 0 0 127 0"/>
<feOffset dy="1.02"/>
<feGaussianBlur stdDeviation="12.28"/>
<feColorMatrix type="matrix" values="0 0 0 0 0.898039 0 0 0 0 0.898039 0 0 0 0 0.898039 0 0 0 0.15 0"/>
<feBlend mode="normal" in2="effect1_backgroundBlur" result="effect2_dropShadow"/>
<feBlend mode="normal" in="SourceGraphic" in2="effect2_dropShadow" result="shape"/>
</filter>
<filter id="filter1_bd" x="286" y="49.4043" width="167.691" height="415.175" filterUnits="userSpaceOnUse" color-interpolation-filters="sRGB">
<feFlood flood-opacity="0" result="BackgroundImageFix"/>
<feGaussianBlur in="BackgroundImage" stdDeviation="12"/>
<feComposite in2="SourceAlpha" operator="in" result="effect1_backgroundBlur"/>
<feColorMatrix in="SourceAlpha" type="matrix" values="0 0 0 0 0 0 0 0 0 0 0 0 0 0 0 0 0 0 127 0"/>
<feOffset dy="1.02"/>
<feGaussianBlur stdDeviation="12.28"/>
<feColorMatrix type="matrix" values="0 0 0 0 0.898039 0 0 0 0 0.898039 0 0 0 0 0.898039 0 0 0 0.15 0"/>
<feBlend mode="normal" in2="effect1_backgroundBlur" result="effect2_dropShadow"/>
<feBlend mode="normal" in="SourceGraphic" in2="effect2_dropShadow" result="shape"/>
</filter>
<linearGradient id="paint0_linear" x1="25" y1="24" x2="271.036" y2="439" gradientUnits="userSpaceOnUse">
<stop stop-color="#5D5D5D" stop-opacity="0.5"/>
<stop offset="1" stop-color="#5D5D5D" stop-opacity="0.1"/>
</linearGradient>
<linearGradient id="paint1_linear" x1="25" y1="24" x2="267.577" y2="439" gradientUnits="userSpaceOnUse">
<stop stop-color="white"/>
<stop offset="0.354835" stop-color="#F8B1B2" stop-opacity="0.5"/>
<stop offset="0.711161" stop-color="#F16265" stop-opacity="0.5"/>
<stop offset="1" stop-color="#EB2227"/>
</linearGradient>
<linearGradient id="paint2_linear" x1="310.56" y1="66.4876" x2="420.238" y2="439" gradientUnits="userSpaceOnUse">
<stop stop-color="#5D5D5D" stop-opacity="0.5"/>
<stop offset="1" stop-color="white" stop-opacity="0.1"/>
<stop offset="1" stop-color="#5D5D5D" stop-opacity="0.2"/>
</linearGradient>
<linearGradient id="paint3_linear" x1="310.56" y1="73.4043" x2="429.131" y2="439" gradientUnits="userSpaceOnUse">
<stop stop-color="white"/>
<stop offset="0.341244" stop-color="#F8B4B5" stop-opacity="0.5"/>
<stop offset="0.676432" stop-color="#F16A6D" stop-opacity="0.5"/>
<stop offset="1" stop-color="#EB2227"/>
</linearGradient>
</defs>
</svg>
