<svg width="643" height="635" viewBox="0 0 643 635" fill="none" xmlns="http://www.w3.org/2000/svg">
<g filter="url(#filter0_f)">
<path d="M134.383 443.735L508.879 399.582C522.428 397.985 529.202 397.186 534.527 400.459C539.852 403.731 542.2 410.135 546.895 422.945L569.692 485.137C577.384 506.121 581.231 516.613 576.212 524.2C571.194 531.786 560.033 532.351 537.712 533.481L214.143 549.861C209.696 550.086 207.473 550.198 205.31 549.775C203.146 549.352 201.129 548.41 197.094 546.527L123.369 512.107C76.9226 490.423 53.6992 479.581 55.8613 466.159C58.0234 452.738 83.4766 449.737 134.383 443.735Z" fill="#121212" fill-opacity="0.32"/>
</g>
<g filter="url(#filter1_bd)">
<path d="M155.065 309.979L502.052 237.427C515.782 234.556 522.647 233.12 528.331 236.056C534.014 238.992 536.816 245.422 542.421 258.28L612.325 418.654C620.497 437.403 624.583 446.777 620.656 454.382C616.729 461.987 606.72 464.083 586.702 468.275L237.501 541.396C223.599 544.308 216.647 545.763 210.923 542.76C205.199 539.757 202.445 533.211 196.939 520.118L129.248 359.174C121.41 340.538 117.491 331.22 121.436 323.703C125.381 316.186 135.276 314.117 155.065 309.979Z" fill="url(#paint0_linear)"/>
<path d="M155.065 309.979L502.052 237.427C515.782 234.556 522.647 233.12 528.331 236.056C534.014 238.992 536.816 245.422 542.421 258.28L612.325 418.654C620.497 437.403 624.583 446.777 620.656 454.382C616.729 461.987 606.72 464.083 586.702 468.275L237.501 541.396C223.599 544.308 216.647 545.763 210.923 542.76C205.199 539.757 202.445 533.211 196.939 520.118L129.248 359.174C121.41 340.538 117.491 331.22 121.436 323.703C125.381 316.186 135.276 314.117 155.065 309.979Z" stroke="url(#paint1_linear)"/>
</g>
<g style="mix-blend-mode:overlay" filter="url(#filter2_f)">
<path d="M117.449 240.327L224.333 64.9936C228.59 58.0106 237.019 54.775 244.855 57.1161L582.693 158.049C593.982 161.421 599.04 174.55 592.933 184.626L482.274 367.194C477.947 374.333 469.278 377.56 461.336 374.988L127.273 266.821C116.208 263.238 111.395 250.258 117.449 240.327Z" fill="#121212" fill-opacity="0.32"/>
</g>
<g filter="url(#filter3_bd)">
<path d="M47.9809 228.044L133.856 35.6733C137.189 28.2055 145.138 23.9236 153.209 25.2485L509.605 83.7609C521.231 85.6697 527.92 98.0481 523.144 108.819L434.378 309.032C430.994 316.664 422.807 320.968 414.602 319.428L61.0968 253.073C49.6653 250.927 43.2397 238.665 47.9809 228.044Z" fill="url(#paint2_linear)"/>
<path d="M47.9809 228.044L133.856 35.6733C137.189 28.2055 145.138 23.9236 153.209 25.2485L509.605 83.7609C521.231 85.6697 527.92 98.0481 523.144 108.819L434.378 309.032C430.994 316.664 422.807 320.968 414.602 319.428L61.0968 253.073C49.6653 250.927 43.2397 238.665 47.9809 228.044Z" stroke="url(#paint3_linear)"/>
</g>
<path fill-rule="evenodd" clip-rule="evenodd" d="M410.617 253.259C419.206 254.567 430.997 250.232 436.584 243.249C441.929 236.57 439.517 229.73 430.537 228.362C421.948 227.053 410.157 231.388 404.57 238.371C399.373 245.414 402.028 251.95 410.617 253.259ZM417.862 261.175L406.149 259.39C400.292 258.498 393.274 260.153 387.625 263.38C384.997 265.023 382.515 267.03 380.815 269.155L368.911 284.032C368.183 284.943 368.235 285.973 368.53 286.699C368.434 287.366 369.215 287.485 369.996 287.604L393.812 291.233C396.154 291.59 398.931 290.31 400.145 288.792L419.337 264.806C420.551 263.288 419.814 261.472 417.862 261.175ZM402.182 224.383L402.572 224.443C404.915 224.8 405.262 226.556 404.828 228.193L360.615 283.451C359.401 284.969 356.624 286.249 354.282 285.893L353.501 285.774C352.33 285.595 351.159 285.417 350.23 284.935C345.103 283.131 341.094 280.477 338.595 277.03C336.93 274.733 335.897 272.191 335.498 269.405C334.899 265.226 335.715 260.922 338.43 255.886C339.497 254.005 340.807 251.82 342.508 249.695C344.017 247.808 345.642 246.208 347.451 244.428C347.68 244.202 347.912 243.974 348.147 243.741C352.962 239.365 358.706 235.472 364.892 232.667C369.178 230.595 373.611 228.886 378.192 227.541C384.673 225.462 391.597 224.474 398.425 224.151C399.011 224.241 399.657 224.254 400.303 224.267C400.95 224.281 401.596 224.294 402.182 224.383Z" fill="#EB2227"/>
<g style="mix-blend-mode:overlay" opacity="0.5" filter="url(#filter4_b)">
<path d="M132.853 97.8299L140.861 80.6656C142.108 77.9936 142.731 76.6575 143.935 76.0307C145.138 75.4039 146.59 75.6588 149.494 76.1686L317.288 105.621C321.911 106.433 324.223 106.839 325.141 108.553C326.06 110.268 325.117 112.417 323.23 116.716L316.351 132.391L316.351 132.391C315.151 135.126 314.551 136.493 313.345 137.147C312.139 137.8 310.666 137.556 307.719 137.068L138.796 109.105C134.023 108.315 131.637 107.92 130.711 106.163C129.785 104.406 130.807 102.214 132.853 97.8299Z" fill="url(#paint4_linear)"/>
<path d="M331.96 167.43L123.007 131.467L123.007 131.467C121.588 131.223 120.879 131.101 120.388 130.869C118.638 130.045 117.729 128.087 118.228 126.218C118.369 125.693 118.733 125.073 119.462 123.831L119.462 123.831C119.839 123.189 120.028 122.868 120.247 122.608C121.012 121.702 122.138 121.182 123.324 121.187C123.664 121.189 124.031 121.254 124.764 121.383L333.567 158.202L333.568 158.202C334.407 158.351 334.827 158.425 335.134 158.532C337.224 159.264 338.322 161.554 337.584 163.641C337.475 163.948 337.27 164.322 336.859 165.069L336.859 165.069C336.635 165.478 336.523 165.682 336.402 165.856C335.601 167.006 334.258 167.653 332.86 167.563C332.649 167.549 332.419 167.51 331.96 167.43Z" fill="url(#paint5_linear)"/>
</g>
<defs>
<filter id="filter0_f" x="11.4229" y="300.745" width="617.976" height="334.126" filterUnits="userSpaceOnUse" color-interpolation-filters="sRGB">
<feFlood flood-opacity="0" result="BackgroundImageFix"/>
<feBlend mode="normal" in="SourceGraphic" in2="BackgroundImageFix" result="shape"/>
<feGaussianBlur stdDeviation="18" result="effect1_foregroundBlur"/>
</filter>
<filter id="filter1_bd" x="95.3828" y="209.941" width="551.28" height="358.976" filterUnits="userSpaceOnUse" color-interpolation-filters="sRGB">
<feFlood flood-opacity="0" result="BackgroundImageFix"/>
<feGaussianBlur in="BackgroundImage" stdDeviation="12"/>
<feComposite in2="SourceAlpha" operator="in" result="effect1_backgroundBlur"/>
<feColorMatrix in="SourceAlpha" type="matrix" values="0 0 0 0 0 0 0 0 0 0 0 0 0 0 0 0 0 0 127 0"/>
<feOffset dy="1.02"/>
<feGaussianBlur stdDeviation="10"/>
<feColorMatrix type="matrix" values="0 0 0 0 0.898039 0 0 0 0 0.898039 0 0 0 0 0.898039 0 0 0 0.1 0"/>
<feBlend mode="normal" in2="effect1_backgroundBlur" result="effect2_dropShadow"/>
<feBlend mode="normal" in="SourceGraphic" in2="effect2_dropShadow" result="shape"/>
</filter>
<filter id="filter2_f" x="68.4199" y="7.56494" width="572.545" height="417.456" filterUnits="userSpaceOnUse" color-interpolation-filters="sRGB">
<feFlood flood-opacity="0" result="BackgroundImageFix"/>
<feBlend mode="normal" in="SourceGraphic" in2="BackgroundImageFix" result="shape"/>
<feGaussianBlur stdDeviation="18" result="effect1_foregroundBlur"/>
</filter>
<filter id="filter3_bd" x="21.3458" y="0.969278" width="528.415" height="344.849" filterUnits="userSpaceOnUse" color-interpolation-filters="sRGB">
<feFlood flood-opacity="0" result="BackgroundImageFix"/>
<feGaussianBlur in="BackgroundImage" stdDeviation="10.28"/>
<feComposite in2="SourceAlpha" operator="in" result="effect1_backgroundBlur"/>
<feColorMatrix in="SourceAlpha" type="matrix" values="0 0 0 0 0 0 0 0 0 0 0 0 0 0 0 0 0 0 127 0"/>
<feOffset dy="1.02"/>
<feGaussianBlur stdDeviation="12.28"/>
<feColorMatrix type="matrix" values="0 0 0 0 0.898039 0 0 0 0 0.898039 0 0 0 0 0.898039 0 0 0 0.1 0"/>
<feBlend mode="normal" in2="effect1_backgroundBlur" result="effect2_dropShadow"/>
<feBlend mode="normal" in="SourceGraphic" in2="effect2_dropShadow" result="shape"/>
</filter>
<filter id="filter4_b" x="94.0923" y="51.6611" width="267.721" height="139.91" filterUnits="userSpaceOnUse" color-interpolation-filters="sRGB">
<feFlood flood-opacity="0" result="BackgroundImageFix"/>
<feGaussianBlur in="BackgroundImage" stdDeviation="12"/>
<feComposite in2="SourceAlpha" operator="in" result="effect1_backgroundBlur"/>
<feBlend mode="normal" in="SourceGraphic" in2="effect1_backgroundBlur" result="shape"/>
</filter>
<linearGradient id="paint0_linear" x1="213.135" y1="547.48" x2="533.148" y2="231.433" gradientUnits="userSpaceOnUse">
<stop stop-color="white" stop-opacity="0.4"/>
<stop offset="1" stop-color="white" stop-opacity="0.1"/>
</linearGradient>
<linearGradient id="paint1_linear" x1="527.484" y1="231.433" x2="210.303" y2="547.48" gradientUnits="userSpaceOnUse">
<stop stop-color="#EB2227" stop-opacity="0.8"/>
<stop offset="0.308542" stop-color="#F1666A" stop-opacity="0.5"/>
<stop offset="0.620262" stop-color="#F7ABAD" stop-opacity="0.5"/>
<stop offset="1" stop-color="white"/>
</linearGradient>
<linearGradient id="paint2_linear" x1="285.634" y1="23" x2="285.634" y2="322.056" gradientUnits="userSpaceOnUse">
<stop stop-color="white" stop-opacity="0.4"/>
<stop offset="1" stop-color="white" stop-opacity="0.1"/>
</linearGradient>
<linearGradient id="paint3_linear" x1="141.089" y1="27.7219" x2="425.182" y2="323.103" gradientUnits="userSpaceOnUse">
<stop stop-color="white"/>
<stop offset="0.287615" stop-color="#F9BFC1" stop-opacity="0.5"/>
<stop offset="0.635217" stop-color="#F27376" stop-opacity="0.5"/>
<stop offset="1" stop-color="#EB2227"/>
</linearGradient>
<linearGradient id="paint4_linear" x1="227.861" y1="75.1084" x2="296.394" y2="213.308" gradientUnits="userSpaceOnUse">
<stop stop-color="#C4C4C4"/>
<stop offset="1" stop-color="#C4C4C4" stop-opacity="0"/>
</linearGradient>
<linearGradient id="paint5_linear" x1="227.861" y1="75.1084" x2="296.394" y2="213.308" gradientUnits="userSpaceOnUse">
<stop stop-color="#C4C4C4"/>
<stop offset="1" stop-color="#C4C4C4" stop-opacity="0"/>
</linearGradient>
</defs>
</svg>
