<svg width="643" height="601" viewBox="0 0 643 601" fill="none" xmlns="http://www.w3.org/2000/svg">
<g filter="url(#filter0_f)">
<path d="M134.383 443.758L508.879 399.605C522.428 398.008 529.202 397.209 534.527 400.481C539.852 403.754 542.2 410.158 546.895 422.967L569.692 485.159C577.384 506.144 581.231 516.636 576.212 524.223C571.194 531.809 560.033 532.374 537.712 533.504L214.143 549.883C209.696 550.109 207.473 550.221 205.31 549.798C203.146 549.375 201.129 548.433 197.094 546.55L123.369 512.13C76.9226 490.446 53.6992 479.604 55.8613 466.182C58.0234 452.761 83.4766 449.76 134.383 443.758Z" fill="#121212" fill-opacity="0.32"/>
</g>
<g filter="url(#filter1_bd)">
<path d="M155.065 310.002L502.052 237.45C515.782 234.579 522.647 233.143 528.331 236.079C534.014 239.015 536.816 245.444 542.421 258.303L612.325 418.677C620.497 437.426 624.583 446.8 620.656 454.405C616.729 462.01 606.72 464.106 586.702 468.297L237.501 541.419C223.599 544.331 216.647 545.786 210.923 542.783C205.199 539.78 202.445 533.234 196.939 520.141L129.248 359.197C121.41 340.561 117.491 331.243 121.436 323.726C125.381 316.209 135.276 314.14 155.065 310.002Z" fill="url(#paint0_linear)"/>
<path d="M155.065 310.002L502.052 237.45C515.782 234.579 522.647 233.143 528.331 236.079C534.014 239.015 536.816 245.444 542.421 258.303L612.325 418.677C620.497 437.426 624.583 446.8 620.656 454.405C616.729 462.01 606.72 464.106 586.702 468.297L237.501 541.419C223.599 544.331 216.647 545.786 210.923 542.783C205.199 539.78 202.445 533.234 196.939 520.141L129.248 359.197C121.41 340.561 117.491 331.243 121.436 323.726C125.381 316.209 135.276 314.14 155.065 310.002Z" stroke="url(#paint1_linear)"/>
</g>
<g style="mix-blend-mode:multiply" opacity="0.5" filter="url(#filter2_f)">
<path d="M117.449 240.35L224.333 65.0165C228.59 58.0336 237.019 54.7979 244.855 57.139L582.693 158.072C593.982 161.444 599.04 174.573 592.933 184.649L482.274 367.217C477.947 374.356 469.278 377.583 461.336 375.011L127.273 266.844C116.208 263.261 111.395 250.281 117.449 240.35Z" fill="#121212" fill-opacity="0.32"/>
</g>
<g filter="url(#filter3_bd)">
<path d="M47.9809 228.067L133.856 35.6963C137.189 28.2284 145.138 23.9465 153.209 25.2714L509.605 83.7839C521.231 85.6926 527.92 98.0711 523.144 108.842L434.378 309.055C430.994 316.687 422.807 320.991 414.602 319.451L61.0968 253.096C49.6653 250.95 43.2397 238.688 47.9809 228.067Z" fill="url(#paint2_linear)"/>
<path d="M47.9809 228.067L133.856 35.6963C137.189 28.2284 145.138 23.9465 153.209 25.2714L509.605 83.7839C521.231 85.6926 527.92 98.0711 523.144 108.842L434.378 309.055C430.994 316.687 422.807 320.991 414.602 319.451L61.0968 253.096C49.6653 250.95 43.2397 238.688 47.9809 228.067Z" stroke="url(#paint3_linear)"/>
</g>
<path fill-rule="evenodd" clip-rule="evenodd" d="M410.617 253.282C419.206 254.59 430.997 250.255 436.584 243.272C441.929 236.593 439.517 229.753 430.537 228.385C421.948 227.076 410.157 231.411 404.57 238.394C399.373 245.437 402.028 251.973 410.617 253.282ZM417.862 261.198L406.149 259.413C400.292 258.521 393.274 260.176 387.625 263.403C384.997 265.046 382.515 267.053 380.815 269.178L368.911 284.055C368.183 284.966 368.235 285.996 368.53 286.722C368.434 287.389 369.215 287.508 369.996 287.627L393.812 291.256C396.154 291.613 398.931 290.333 400.145 288.814L419.337 264.829C420.551 263.311 419.814 261.495 417.862 261.198ZM402.182 224.406L402.572 224.466C404.915 224.823 405.262 226.579 404.828 228.216L360.615 283.474C359.401 284.992 356.624 286.272 354.282 285.915L353.501 285.797C352.33 285.618 351.159 285.44 350.23 284.957C345.103 283.154 341.094 280.5 338.595 277.053C336.93 274.756 335.897 272.214 335.498 269.428C334.899 265.249 335.715 260.945 338.43 255.909C339.497 254.028 340.807 251.843 342.508 249.718C344.017 247.831 345.642 246.231 347.451 244.451C347.68 244.225 347.912 243.997 348.147 243.764C352.962 239.388 358.706 235.495 364.892 232.69C369.178 230.618 373.611 228.909 378.192 227.564C384.673 225.485 391.597 224.496 398.425 224.174C399.011 224.264 399.657 224.277 400.303 224.29C400.95 224.304 401.596 224.317 402.182 224.406Z" fill="#EB2227"/>
<g opacity="0.5" filter="url(#filter4_b)">
<path d="M132.853 97.8528L140.861 80.6886C142.108 78.0165 142.731 76.6805 143.935 76.0537C145.138 75.4269 146.59 75.6818 149.494 76.1915L317.288 105.644C321.911 106.456 324.223 106.862 325.141 108.576C326.06 110.291 325.117 112.44 323.23 116.739L316.351 132.414C315.151 135.149 314.551 136.516 313.345 137.17C312.139 137.823 310.666 137.579 307.719 137.091L138.796 109.128C134.023 108.338 131.637 107.943 130.711 106.186C129.785 104.429 130.807 102.237 132.853 97.8528Z" fill="url(#paint4_linear)"/>
<path d="M331.96 167.453L123.007 131.49L123.007 131.49C121.588 131.246 120.879 131.124 120.388 130.892C118.638 130.068 117.729 128.11 118.228 126.241C118.369 125.716 118.733 125.096 119.462 123.854C119.839 123.212 120.028 122.891 120.247 122.631C121.012 121.725 122.138 121.205 123.324 121.21C123.664 121.212 124.031 121.277 124.764 121.406L333.567 158.225C334.407 158.373 334.827 158.448 335.134 158.555C337.224 159.287 338.322 161.577 337.584 163.664C337.475 163.971 337.27 164.344 336.859 165.092L336.859 165.092L336.859 165.092C336.635 165.501 336.523 165.705 336.402 165.879C335.601 167.029 334.258 167.676 332.86 167.586C332.649 167.572 332.419 167.532 331.96 167.453Z" fill="url(#paint5_linear)"/>
</g>
<defs>
<filter id="filter0_f" x="19.7231" y="362.217" width="594.75" height="223.867" filterUnits="userSpaceOnUse" color-interpolation-filters="sRGB">
<feFlood flood-opacity="0" result="BackgroundImageFix"/>
<feBlend mode="normal" in="SourceGraphic" in2="BackgroundImageFix" result="shape"/>
<feGaussianBlur stdDeviation="18" result="effect1_foregroundBlur"/>
</filter>
<filter id="filter1_bd" x="95.3828" y="209.964" width="551.28" height="358.976" filterUnits="userSpaceOnUse" color-interpolation-filters="sRGB">
<feFlood flood-opacity="0" result="BackgroundImageFix"/>
<feGaussianBlur in="BackgroundImage" stdDeviation="12"/>
<feComposite in2="SourceAlpha" operator="in" result="effect1_backgroundBlur"/>
<feColorMatrix in="SourceAlpha" type="matrix" values="0 0 0 0 0 0 0 0 0 0 0 0 0 0 0 0 0 0 127 0"/>
<feOffset dy="1.02"/>
<feGaussianBlur stdDeviation="10"/>
<feColorMatrix type="matrix" values="0 0 0 0 0.898039 0 0 0 0 0.898039 0 0 0 0 0.898039 0 0 0 0.1 0"/>
<feBlend mode="normal" in2="effect1_backgroundBlur" result="effect2_dropShadow"/>
<feBlend mode="normal" in="SourceGraphic" in2="effect2_dropShadow" result="shape"/>
</filter>
<filter id="filter2_f" x="78.8096" y="20.3843" width="552.74" height="391.504" filterUnits="userSpaceOnUse" color-interpolation-filters="sRGB">
<feFlood flood-opacity="0" result="BackgroundImageFix"/>
<feBlend mode="normal" in="SourceGraphic" in2="BackgroundImageFix" result="shape"/>
<feGaussianBlur stdDeviation="18" result="effect1_foregroundBlur"/>
</filter>
<filter id="filter3_bd" x="21.3458" y="0.992227" width="528.415" height="344.849" filterUnits="userSpaceOnUse" color-interpolation-filters="sRGB">
<feFlood flood-opacity="0" result="BackgroundImageFix"/>
<feGaussianBlur in="BackgroundImage" stdDeviation="10.28"/>
<feComposite in2="SourceAlpha" operator="in" result="effect1_backgroundBlur"/>
<feColorMatrix in="SourceAlpha" type="matrix" values="0 0 0 0 0 0 0 0 0 0 0 0 0 0 0 0 0 0 127 0"/>
<feOffset dy="1.02"/>
<feGaussianBlur stdDeviation="12.28"/>
<feColorMatrix type="matrix" values="0 0 0 0 0.898039 0 0 0 0 0.898039 0 0 0 0 0.898039 0 0 0 0.1 0"/>
<feBlend mode="normal" in2="effect1_backgroundBlur" result="effect2_dropShadow"/>
<feBlend mode="normal" in="SourceGraphic" in2="effect2_dropShadow" result="shape"/>
</filter>
<filter id="filter4_b" x="94.0923" y="51.6841" width="267.721" height="139.91" filterUnits="userSpaceOnUse" color-interpolation-filters="sRGB">
<feFlood flood-opacity="0" result="BackgroundImageFix"/>
<feGaussianBlur in="BackgroundImage" stdDeviation="12"/>
<feComposite in2="SourceAlpha" operator="in" result="effect1_backgroundBlur"/>
<feBlend mode="normal" in="SourceGraphic" in2="effect1_backgroundBlur" result="shape"/>
</filter>
<linearGradient id="paint0_linear" x1="213.135" y1="547.503" x2="533.148" y2="231.456" gradientUnits="userSpaceOnUse">
<stop stop-color="#737373" stop-opacity="0.4"/>
<stop offset="1" stop-color="#737373" stop-opacity="0.2"/>
</linearGradient>
<linearGradient id="paint1_linear" x1="527.484" y1="231.456" x2="210.303" y2="547.503" gradientUnits="userSpaceOnUse">
<stop stop-color="#EB2227" stop-opacity="0.8"/>
<stop offset="0.308542" stop-color="#F1666A" stop-opacity="0.5"/>
<stop offset="0.620262" stop-color="#F7ABAD" stop-opacity="0.5"/>
<stop offset="1" stop-color="white"/>
</linearGradient>
<linearGradient id="paint2_linear" x1="285.634" y1="23.0229" x2="285.634" y2="322.079" gradientUnits="userSpaceOnUse">
<stop stop-color="#737373" stop-opacity="0.4"/>
<stop offset="1" stop-color="#737373" stop-opacity="0.2"/>
</linearGradient>
<linearGradient id="paint3_linear" x1="141.089" y1="27.7449" x2="425.182" y2="323.126" gradientUnits="userSpaceOnUse">
<stop stop-color="white"/>
<stop offset="0.287615" stop-color="#F9BFC1" stop-opacity="0.5"/>
<stop offset="0.635217" stop-color="#F27376" stop-opacity="0.5"/>
<stop offset="1" stop-color="#EB2227"/>
</linearGradient>
<linearGradient id="paint4_linear" x1="227.861" y1="75.1314" x2="296.394" y2="213.331" gradientUnits="userSpaceOnUse">
<stop stop-color="white"/>
<stop offset="1" stop-color="white" stop-opacity="0.9"/>
</linearGradient>
<linearGradient id="paint5_linear" x1="227.861" y1="75.1314" x2="296.394" y2="213.331" gradientUnits="userSpaceOnUse">
<stop stop-color="white"/>
<stop offset="1" stop-color="white" stop-opacity="0.9"/>
</linearGradient>
</defs>
</svg>
