<svg width="903" height="900" viewBox="0 0 903 900" fill="none" xmlns="http://www.w3.org/2000/svg">
<path opacity="0.0208333" d="M885.136 450.978C885.136 690.179 691.009 884.091 451.54 884.091C212.071 884.091 17.9443 690.179 17.9443 450.978C17.9443 211.776 212.071 17.8638 451.54 17.8638C691.009 17.8638 885.136 211.776 885.136 450.978Z" stroke="#B58800"/>
<path opacity="0.0416667" d="M867.772 450.977C867.772 680.589 681.419 866.727 451.54 866.727C221.661 866.727 35.3076 680.589 35.3076 450.977C35.3076 221.366 221.661 35.2275 451.54 35.2275C681.419 35.2275 867.772 221.366 867.772 450.977Z" stroke="#B58800"/>
<path opacity="0.0625" d="M850.409 450.977C850.409 670.999 671.83 849.363 451.54 849.363C231.251 849.363 52.6719 670.999 52.6719 450.977C52.6719 230.955 231.251 52.5913 451.54 52.5913C671.83 52.5913 850.409 230.955 850.409 450.977Z" stroke="#B58800"/>
<path opacity="0.0833333" d="M833.044 450.978C833.044 661.41 662.239 832 451.54 832C240.84 832 70.0352 661.41 70.0352 450.978C70.0352 240.546 240.84 69.9556 451.54 69.9556C662.239 69.9556 833.044 240.546 833.044 450.978Z" stroke="#B58800"/>
<path opacity="0.104167" d="M815.681 450.978C815.681 651.82 652.65 814.636 451.54 814.636C250.43 814.636 87.3994 651.82 87.3994 450.978C87.3994 250.135 250.43 87.3193 451.54 87.3193C652.65 87.3193 815.681 250.135 815.681 450.978Z" stroke="#B58800"/>
<path opacity="0.125" d="M798.316 450.978C798.316 642.23 643.06 797.272 451.54 797.272C260.019 797.272 104.763 642.23 104.763 450.978C104.763 259.725 260.019 104.683 451.54 104.683C643.06 104.683 798.316 259.725 798.316 450.978Z" stroke="#B58800"/>
<path opacity="0.145833" d="M780.953 450.978C780.953 632.64 633.47 779.908 451.54 779.908C269.609 779.908 122.127 632.64 122.127 450.978C122.127 269.315 269.609 122.047 451.54 122.047C633.47 122.047 780.953 269.315 780.953 450.978Z" stroke="#B58800"/>
<path opacity="0.166667" d="M763.59 450.977C763.59 623.05 623.881 762.544 451.54 762.544C279.2 762.544 139.491 623.05 139.491 450.977C139.491 278.905 279.2 139.411 451.54 139.411C623.881 139.411 763.59 278.905 763.59 450.977Z" stroke="#B58800"/>
<path opacity="0.1875" d="M746.225 450.977C746.225 613.46 614.291 745.18 451.54 745.18C288.789 745.18 156.854 613.46 156.854 450.977C156.854 288.494 288.789 156.774 451.54 156.774C614.291 156.774 746.225 288.494 746.225 450.977Z" stroke="#B58800"/>
<path opacity="0.208333" d="M728.862 450.977C728.862 603.871 604.702 727.816 451.54 727.816C298.379 727.816 174.219 603.871 174.219 450.977C174.219 298.084 298.379 174.138 451.54 174.138C604.702 174.138 728.862 298.084 728.862 450.977Z" stroke="#B58800"/>
<path opacity="0.229167" d="M711.497 450.978C711.497 594.281 595.111 710.453 451.54 710.453C307.968 710.453 191.582 594.281 191.582 450.978C191.582 307.674 307.968 191.502 451.54 191.502C595.111 191.502 711.497 307.674 711.497 450.978Z" stroke="#B58800"/>
<path opacity="0.25" d="M694.134 450.978C694.134 584.691 585.522 693.089 451.54 693.089C317.558 693.089 208.946 584.691 208.946 450.978C208.946 317.264 317.558 208.866 451.54 208.866C585.522 208.866 694.134 317.264 694.134 450.978Z" stroke="#B58800"/>
<path opacity="0.270833" d="M676.77 450.978C676.77 575.101 575.932 675.725 451.54 675.725C327.147 675.725 226.31 575.101 226.31 450.978C226.31 326.854 327.147 226.23 451.54 226.23C575.932 226.23 676.77 326.854 676.77 450.978Z" stroke="#B58800"/>
<path opacity="0.291667" d="M659.406 450.978C659.406 565.511 566.342 658.361 451.54 658.361C336.738 658.361 243.674 565.511 243.674 450.978C243.674 336.444 336.738 243.594 451.54 243.594C566.342 243.594 659.406 336.444 659.406 450.978Z" stroke="#B58800"/>
<path opacity="0.3125" d="M642.043 450.977C642.043 555.921 556.753 640.997 451.54 640.997C346.328 640.997 261.038 555.921 261.038 450.977C261.038 346.034 346.328 260.958 451.54 260.958C556.753 260.958 642.043 346.034 642.043 450.977Z" stroke="#B58800"/>
<path opacity="0.333333" d="M624.678 450.977C624.678 546.331 547.163 623.634 451.54 623.634C355.917 623.634 278.401 546.331 278.401 450.977C278.401 355.623 355.917 278.321 451.54 278.321C547.163 278.321 624.678 355.623 624.678 450.977Z" stroke="#B58800"/>
<path opacity="0.354167" d="M607.315 450.978C607.315 536.742 537.574 606.27 451.54 606.27C365.507 606.27 295.766 536.742 295.766 450.978C295.766 365.214 365.507 295.686 451.54 295.686C537.574 295.686 607.315 365.214 607.315 450.978Z" stroke="#B58800"/>
<path opacity="0.375" d="M589.95 450.978C589.95 527.152 527.983 588.906 451.54 588.906C375.096 588.906 313.129 527.152 313.129 450.978C313.129 374.804 375.096 313.049 451.54 313.049C527.983 313.049 589.95 374.804 589.95 450.978Z" stroke="#B58800"/>
<path opacity="0.395833" d="M572.587 450.978C572.587 517.562 518.394 571.542 451.54 571.542C384.686 571.542 330.493 517.562 330.493 450.978C330.493 384.394 384.686 330.413 451.54 330.413C518.394 330.413 572.587 384.394 572.587 450.978Z" stroke="#B58800"/>
<path opacity="0.416667" d="M555.224 450.978C555.224 507.972 508.805 554.178 451.54 554.178C394.276 554.178 347.857 507.972 347.857 450.978C347.857 393.984 394.276 347.777 451.54 347.777C508.805 347.777 555.224 393.984 555.224 450.978Z" stroke="#B58800"/>
<path opacity="0.4375" d="M537.859 450.978C537.859 498.381 499.215 536.814 451.54 536.814C403.865 536.814 365.221 498.381 365.221 450.978C365.221 403.574 403.865 365.141 451.54 365.141C499.215 365.141 537.859 403.574 537.859 450.978Z" stroke="#B58800"/>
<path opacity="0.458333" d="M520.496 450.977C520.496 488.791 489.627 519.45 451.54 519.45C413.454 519.45 382.585 488.791 382.585 450.977C382.585 413.164 413.454 382.504 451.54 382.504C489.627 382.504 520.496 413.164 520.496 450.977Z" stroke="#B58800"/>
<path opacity="0.479167" d="M503.131 450.978C503.131 479.2 480.037 502.087 451.54 502.087C423.042 502.087 399.948 479.2 399.948 450.978C399.948 422.755 423.042 399.869 451.54 399.869C480.037 399.869 503.131 422.755 503.131 450.978Z" stroke="#B58800"/>
<path opacity="0.5" d="M485.768 450.978C485.768 469.608 470.45 484.723 451.54 484.723C432.63 484.723 417.312 469.608 417.312 450.978C417.312 432.347 432.63 417.232 451.54 417.232C470.45 417.232 485.768 432.347 485.768 450.978Z" stroke="#B58800"/>
</svg>
