<svg width="1020" height="900" viewBox="0 0 1020 900" fill="none" xmlns="http://www.w3.org/2000/svg">
<path opacity="0.0208333" d="M999.884 392.5C999.884 662.754 780.556 881.84 510 881.84C239.444 881.84 20.1152 662.754 20.1152 392.5C20.1152 122.246 239.444 -96.8398 510 -96.8398C780.556 -96.8398 999.884 122.246 999.884 392.5Z" stroke="white" stroke-opacity="0.5"/>
<path opacity="0.0416667" d="M980.269 392.5C980.269 651.921 769.723 862.225 510 862.225C250.277 862.225 39.7305 651.921 39.7305 392.5C39.7305 133.079 250.277 -77.2241 510 -77.2241C769.723 -77.2241 980.269 133.079 980.269 392.5Z" stroke="white" stroke-opacity="0.5"/>
<path opacity="0.0625" d="M960.653 392.5C960.653 641.088 758.889 842.609 510 842.609C261.11 842.609 59.3457 641.088 59.3457 392.5C59.3457 143.912 261.11 -57.6089 510 -57.6089C758.889 -57.6089 960.653 143.912 960.653 392.5Z" stroke="white" stroke-opacity="0.5"/>
<path opacity="0.0833333" d="M941.039 392.5C941.039 630.254 748.057 822.994 510 822.994C271.944 822.994 78.9619 630.254 78.9619 392.5C78.9619 154.745 271.944 -37.9937 510 -37.9937C748.057 -37.9937 941.039 154.745 941.039 392.5Z" stroke="white" stroke-opacity="0.5"/>
<path opacity="0.104167" d="M921.423 392.5C921.423 619.421 737.224 803.378 510 803.378C282.777 803.378 98.5771 619.421 98.5771 392.5C98.5771 165.579 282.777 -18.3779 510 -18.3779C737.224 -18.3779 921.423 165.579 921.423 392.5Z" stroke="white" stroke-opacity="0.5"/>
<path opacity="0.125" d="M901.808 392.5C901.808 608.588 726.39 783.763 510 783.763C293.61 783.763 118.192 608.588 118.192 392.5C118.192 176.412 293.61 1.2373 510 1.2373C726.39 1.2373 901.808 176.412 901.808 392.5Z" stroke="white" stroke-opacity="0.5"/>
<path opacity="0.145833" d="M882.192 392.5C882.192 597.754 715.557 764.147 510 764.147C304.443 764.147 137.808 597.754 137.808 392.5C137.808 187.245 304.443 20.8525 510 20.8525C715.557 20.8525 882.192 187.245 882.192 392.5Z" stroke="white" stroke-opacity="0.5"/>
<path opacity="0.166667" d="M862.577 392.5C862.577 586.921 704.723 744.532 510 744.532C315.276 744.532 157.423 586.921 157.423 392.5C157.423 198.079 315.276 40.4678 510 40.4678C704.723 40.4678 862.577 198.079 862.577 392.5Z" stroke="white" stroke-opacity="0.5"/>
<path opacity="0.1875" d="M842.961 392.5C842.961 576.088 693.89 724.917 510 724.917C326.109 724.917 177.038 576.088 177.038 392.5C177.038 208.912 326.109 60.0835 510 60.0835C693.89 60.0835 842.961 208.912 842.961 392.5Z" stroke="white" stroke-opacity="0.5"/>
<path opacity="0.208333" d="M823.347 392.5C823.347 565.255 683.058 705.301 510 705.301C336.943 705.301 196.654 565.255 196.654 392.5C196.654 219.745 336.943 79.6987 510 79.6987C683.058 79.6987 823.347 219.745 823.347 392.5Z" stroke="white" stroke-opacity="0.5"/>
<path opacity="0.229167" d="M803.731 392.5C803.731 554.421 672.224 685.686 510 685.686C347.776 685.686 216.27 554.421 216.27 392.5C216.27 230.579 347.776 99.314 510 99.314C672.224 99.314 803.731 230.579 803.731 392.5Z" stroke="white" stroke-opacity="0.5"/>
<path opacity="0.25" d="M784.116 392.5C784.116 543.588 661.391 666.071 510 666.071C358.609 666.071 235.885 543.588 235.885 392.5C235.885 241.412 358.609 118.93 510 118.93C661.391 118.93 784.116 241.412 784.116 392.5Z" stroke="white" stroke-opacity="0.5"/>
<path opacity="0.270833" d="M764.5 392.5C764.5 532.755 650.557 646.455 510 646.455C369.443 646.455 255.5 532.755 255.5 392.5C255.5 252.246 369.443 138.545 510 138.545C650.557 138.545 764.5 252.246 764.5 392.5Z" stroke="white" stroke-opacity="0.5"/>
<path opacity="0.291667" d="M744.884 392.5C744.884 521.921 639.724 626.84 510 626.84C380.276 626.84 275.115 521.921 275.115 392.5C275.115 263.079 380.276 158.16 510 158.16C639.724 158.16 744.884 263.079 744.884 392.5Z" stroke="white" stroke-opacity="0.5"/>
<path opacity="0.3125" d="M725.269 392.5C725.269 511.088 628.891 607.225 510 607.225C391.109 607.225 294.73 511.088 294.73 392.5C294.73 273.912 391.109 177.776 510 177.776C628.891 177.776 725.269 273.912 725.269 392.5Z" stroke="white" stroke-opacity="0.5"/>
<path opacity="0.333333" d="M705.653 392.5C705.653 500.254 618.057 587.609 510 587.609C401.942 587.609 314.346 500.254 314.346 392.5C314.346 284.746 401.942 197.391 510 197.391C618.057 197.391 705.653 284.746 705.653 392.5Z" stroke="white" stroke-opacity="0.5"/>
<path opacity="0.354167" d="M686.039 392.5C686.039 489.421 607.225 567.994 510 567.994C412.776 567.994 333.962 489.421 333.962 392.5C333.962 295.579 412.776 217.006 510 217.006C607.225 217.006 686.039 295.579 686.039 392.5Z" stroke="white" stroke-opacity="0.5"/>
<path opacity="0.375" d="M666.423 392.5C666.423 478.588 596.392 548.378 510 548.378C423.609 548.378 353.577 478.588 353.577 392.5C353.577 306.413 423.609 236.622 510 236.622C596.392 236.622 666.423 306.413 666.423 392.5Z" stroke="white" stroke-opacity="0.5"/>
<path opacity="0.395833" d="M646.808 392.5C646.808 467.754 585.559 528.763 510 528.763C434.441 528.763 373.192 467.754 373.192 392.5C373.192 317.246 434.441 256.237 510 256.237C585.559 256.237 646.808 317.246 646.808 392.5Z" stroke="white" stroke-opacity="0.5"/>
<path opacity="0.416667" d="M627.192 392.5C627.192 456.92 574.726 509.147 510 509.147C445.274 509.147 392.808 456.92 392.808 392.5C392.808 328.08 445.274 275.853 510 275.853C574.726 275.853 627.192 328.08 627.192 392.5Z" stroke="white" stroke-opacity="0.5"/>
<path opacity="0.4375" d="M607.577 392.5C607.577 446.087 563.893 489.532 510 489.532C456.107 489.532 412.423 446.087 412.423 392.5C412.423 338.913 456.107 295.468 510 295.468C563.893 295.468 607.577 338.913 607.577 392.5Z" stroke="white" stroke-opacity="0.5"/>
<path opacity="0.458333" d="M587.961 392.5C587.961 435.253 553.06 469.917 510 469.917C466.939 469.917 432.038 435.253 432.038 392.5C432.038 349.747 466.939 315.083 510 315.083C553.06 315.083 587.961 349.747 587.961 392.5Z" stroke="white" stroke-opacity="0.5"/>
<path opacity="0.479167" d="M568.347 392.5C568.347 424.418 542.229 450.301 510 450.301C477.772 450.301 451.654 424.418 451.654 392.5C451.654 360.582 477.772 334.699 510 334.699C542.229 334.699 568.347 360.582 568.347 392.5Z" stroke="white" stroke-opacity="0.5"/>
<path opacity="0.5" d="M548.731 392.5C548.731 413.583 531.397 430.686 510 430.686C488.603 430.686 471.27 413.583 471.27 392.5C471.27 371.417 488.603 354.314 510 354.314C531.397 354.314 548.731 371.417 548.731 392.5Z" stroke="white" stroke-opacity="0.5"/>
</svg>
